<svg xmlns="http://www.w3.org/2000/svg">
<defs>
<symbol id="icon-menuburger" viewBox="0 0 32 32">
<path stroke-linejoin="round" stroke-linecap="round" stroke-miterlimit="4" stroke-width="1.6" d="M4 8h24M4 16h24M4 24h24"></path>
</symbol>
<symbol id="icon-close" viewBox="0 0 32 32">
<path stroke-linejoin="round" stroke-linecap="round" stroke-miterlimit="4" stroke-width="1.6" d="M8 8l16 16M8 24l16-16"></path>
</symbol>
<symbol id="icon-menuburgerhorizontaltablet" viewBox="0 0 58 32">
<path stroke-linejoin="round" stroke-linecap="round" stroke-miterlimit="4" stroke-width="1.6" d="M7.2 8h43.2M7.2 16h43.2M7.2 24h43.2"></path>
</symbol>
<symbol id="icon-g10" viewBox="0 0 53 32">
<path d="M48.057 7.857c-2.003 0-3.757 0.668-5.268 2.009-0.582-1.515-1.378-2.865-2.392-4.063-1.015-1.193-2.165-2.212-3.439-3.054-1.279-0.843-2.674-1.507-4.181-1.987s-3.058-0.735-4.655-0.763h-4.749v16.019h-10.66v-16.019h-4.749v16.019c-1.073 0-2.098 0.206-3.067 0.615-0.971 0.408-1.819 0.974-2.545 1.7s-1.301 1.579-1.721 2.556c-0.421 0.974-0.631 2.014-0.631 3.122s0.21 2.104 0.631 3.077c0.421 0.977 0.993 1.825 1.721 2.556 0.724 0.726 1.574 1.3 2.545 1.722s1.994 0.633 3.067 0.633h4.749v-11.221h10.66v11.18h0.005v0.041h4.744v-11.221h1.744v0.005h0.738v-4.762h-2.482v-15.281c1.918 0 3.618 0.466 5.111 1.399 1.494 0.929 2.745 2.122 3.743 3.579 1.002 1.454 1.767 3.076 2.29 4.865 0.519 1.79 0.782 3.547 0.782 5.261h4.351c0-0.493 0.058-1.148 0.174-1.964 0.116-0.811 0.322-1.605 0.613-2.376 0.286-0.772 0.666-1.434 1.131-1.987 0.46-0.552 1.042-0.83 1.74-0.83v23.27h4.744v-24.101h-4.743zM7.965 31.168c-0.582 0-1.096-0.225-1.543-0.673-0.452-0.453-0.792-0.924-1.024-1.422-0.407-0.758-0.689-1.579-0.85-2.466-0.086-0.474-0.147-0.942-0.186-1.403-0.061-1.934 0.749-3.591 2.091-4.191 0.302-0.136 0.806-0.295 1.511-0.236v10.391z"></path>
</symbol>
</defs>
</svg>
