<svg aria-hidden="true" style="position: absolute; width: 0; height: 0; overflow: hidden;" version="1.1" xmlns="http://www.w3.org/2000/svg" xmlns:xlink="http://www.w3.org/1999/xlink">
<defs>
<symbol id="star" viewBox="0 0 32 32">
<path fill="#961c1c" style="fill: var(--color1, #961c1c)" d="M16 24.099l5.82 3.683c1.066 0.675 2.37-0.323 2.090-1.585l-1.543-6.926 5.147-4.666c0.94-0.851 0.435-2.465-0.799-2.568l-6.773-0.602-2.65-6.544c-0.477-1.189-2.104-1.189-2.58 0l-2.65 6.53-6.773 0.602c-1.234 0.103-1.739 1.717-0.799 2.568l5.147 4.666-1.543 6.926c-0.28 1.262 1.024 2.26 2.090 1.585l5.82-3.668z"></path>
</symbol>
<symbol id="facebook" viewBox="0 0 32 32">
<path d="M19.52 4.641c0.24 0 0.48 0 0.96 0v3.6c-0.24 0-0.72 0-1.2 0s-0.96 0-1.2 0.24c-0.24 0.24-0.24 0.48-0.24 1.040 0 0.48 0 0.8 0 1.28h2.64v3.040h-2.64v13.2h-4.080v-13.28h-2.16v-3.040h2.16v-1.040c0-1.76 0.24-3.040 0.72-3.6 0.72-1.040 2.16-1.52 4.32-1.52 0.24 0.080 0.48 0.080 0.72 0.080z"></path>
</symbol>
<symbol id="instagram" viewBox="0 0 32 32">
<path fill="#fcfcfc" style="fill: var(--color1, #fcfcfc)" opacity="0.8" d="M31.897 9.445c-0.020-1.343-0.268-2.675-0.745-3.931-0.833-2.145-2.53-3.841-4.679-4.671-1.242-0.467-2.555-0.717-3.885-0.745-1.709-0.076-2.251-0.098-6.591-0.098s-4.896 0-6.593 0.098c-1.327 0.028-2.641 0.279-3.883 0.745-2.148 0.83-3.847 2.526-4.679 4.671-0.467 1.24-0.72 2.551-0.745 3.876-0.076 1.708-0.1 2.249-0.1 6.582s0 4.886 0.1 6.582c0.027 1.327 0.277 2.636 0.745 3.88 0.833 2.143 2.53 3.839 4.681 4.669 1.237 0.483 2.55 0.756 3.883 0.798 1.711 0.076 2.253 0.099 6.593 0.099s4.896 0 6.593-0.099c1.327-0.027 2.641-0.277 3.884-0.743 2.148-0.832 3.845-2.528 4.679-4.671 0.467-1.242 0.718-2.551 0.745-3.88 0.076-1.707 0.099-2.248 0.099-6.582-0.004-4.332-0.004-4.882-0.103-6.58zM15.988 24.164c-4.538 0-8.215-3.671-8.215-8.201s3.677-8.201 8.215-8.201c4.535 0 8.215 3.67 8.215 8.201s-3.68 8.201-8.215 8.201zM24.53 9.37c-1.061 0-1.916-0.855-1.916-1.912s0.855-1.912 1.916-1.912c1.057 0 1.914 0.855 1.914 1.912s-0.857 1.912-1.914 1.912z"></path>
<path fill="#fcfcfc" style="fill: var(--color1, #fcfcfc)" opacity="0.8" d="M15.992 19.977c2.211 0 4.004-1.793 4.004-4.004s-1.793-4.004-4.004-4.004c-2.211 0-4.004 1.793-4.004 4.004s1.793 4.004 4.004 4.004z"></path>
</symbol>
<svg>
<symbol id="logo-white" viewBox="0 0 209 32">
<path fill="#fff" style="fill: var(--color1, #fff)" d="M78.146 0.267h2.116v11.922h-2.116v-5.177h-6.377v5.177h-2.113v-11.922h2.113v4.8h6.377v-4.8z"></path>
<path fill="#fff" style="fill: var(--color1, #fff)" d="M84.455 12.189v-11.922h8.366v1.946h-6.243v2.861h5.781v1.946h-5.781v3.222h6.243v1.946h-8.366z"></path>
<path fill="#fff" style="fill: var(--color1, #fff)" d="M99.976 0.267h2.316l4.715 11.922h-2.172l-1.335-3.12h-4.866l-1.335 3.12h-2.047l4.724-11.922zM102.762 7.13l-1.696-4.422-1.703 4.422h3.399z"></path>
<path fill="#fff" style="fill: var(--color1, #fff)" d="M109.575 0.267h2.113v9.986h6.042v1.939h-8.156v-11.925z"></path>
<path fill="#fff" style="fill: var(--color1, #fff)" d="M118.738 0.267h10.774v1.946h-4.33v9.976h-2.113v-9.974h-4.33v-1.948z"></path>
<path fill="#fff" style="fill: var(--color1, #fff)" d="M140.476 0.267h2.116v11.922h-2.116v-5.177h-6.377v5.177h-2.113v-11.922h2.113v4.8h6.377v-4.8z"></path>
<path fill="#fff" style="fill: var(--color1, #fff)" d="M145.191 0.267h2.5l3.189 4.623 3.255-4.623h2.417l-4.573 6.351v5.571h-2.375v-5.571l-4.413-6.351z"></path>
<path fill="#fff" style="fill: var(--color1, #fff)" d="M69.656 19.903h2.568l3.96 6.847 4.019-6.847h2.441v11.922h-2.113v-8.92l-3.389 5.505h-1.998l-3.373-5.505v8.92h-2.113v-11.922z"></path>
<path fill="#fff" style="fill: var(--color1, #fff)" d="M90.219 19.903h2.316l4.715 11.922h-2.172l-1.335-3.12h-4.866l-1.335 3.12h-2.047l4.724-11.922zM93.005 26.767l-1.696-4.422-1.703 4.422h3.399z"></path>
<path fill="#fff" style="fill: var(--color1, #fff)" d="M99.818 19.903h2.333l6.653 9.163v-9.163h2.116v11.922h-2.359l-6.63-9.179v9.179h-2.113v-11.922z"></path>
<path fill="#fff" style="fill: var(--color1, #fff)" d="M118.495 19.903h2.316l4.715 11.922h-2.172l-1.335-3.12h-4.866l-1.335 3.12h-2.047l4.724-11.922zM121.281 26.767l-1.696-4.422-1.703 4.422h3.399z"></path>
<path fill="#fff" style="fill: var(--color1, #fff)" d="M139.125 30.099c-1.158 1.264-2.814 1.896-4.967 1.896-0.917 0-1.755-0.118-2.512-0.356s-1.392-0.554-1.901-0.948c-0.509-0.394-0.939-0.856-1.288-1.389-0.349-0.531-0.604-1.085-0.759-1.658s-0.236-1.163-0.236-1.767 0.087-1.241 0.259-1.828c0.172-0.587 0.443-1.139 0.809-1.653s0.809-0.965 1.325-1.347c0.517-0.382 1.142-0.684 1.875-0.906s1.533-0.33 2.399-0.33c1.583 0 3.007 0.351 4.271 1.057l0.295 0.167-0.882 1.66-0.302-0.16c-0.396-0.2-0.894-0.382-1.493-0.542s-1.2-0.238-1.804-0.238-1.165 0.092-1.719 0.276c-0.554 0.184-1.047 0.446-1.481 0.781s-0.781 0.762-1.040 1.281c-0.259 0.517-0.389 1.083-0.389 1.698 0 0.811 0.212 1.54 0.637 2.189s1.014 1.153 1.767 1.514c0.752 0.361 1.599 0.54 2.538 0.54 1.028 0 1.87-0.231 2.526-0.696v-2.29h-3.733v-1.863h5.807v4.908z"></path>
<path fill="#fff" style="fill: var(--color1, #fff)" d="M142.818 31.828v-11.922h8.366v1.946h-6.243v2.861h5.781v1.946h-5.781v3.222h6.243v1.946h-8.366z"></path>
<path fill="#fff" style="fill: var(--color1, #fff)" d="M154.958 19.903h2.568l3.96 6.847 4.019-6.847h2.441v11.922h-2.113v-8.92l-3.389 5.505h-1.998l-3.373-5.505v8.92h-2.113v-11.922z"></path>
<path fill="#fff" style="fill: var(--color1, #fff)" d="M172.142 31.828v-11.922h8.366v1.946h-6.243v2.861h5.781v1.946h-5.781v3.222h6.243v1.946h-8.366z"></path>
<path fill="#fff" style="fill: var(--color1, #fff)" d="M184.283 19.903h2.333l6.653 9.163v-9.163h2.116v11.922h-2.358l-6.63-9.179v9.179h-2.113v-11.922z"></path>
<path fill="#fff" style="fill: var(--color1, #fff)" d="M197.856 19.903h10.774v1.946h-4.33v9.976h-2.113v-9.976h-4.33v-1.946z"></path>
<path fill="#fff" style="fill: var(--color1, #fff)" d="M48.198 7.859c-2.009 0-3.767 0.667-5.283 2.009-0.583-1.517-1.382-2.866-2.399-4.064-1.019-1.193-2.17-2.21-3.448-3.054-1.283-0.842-2.682-1.507-4.193-1.986s-3.068-0.738-4.67-0.764h-4.762v16.019h-10.691v-16.019h-4.762v16.019c-1.075 0-2.104 0.205-3.075 0.616-0.974 0.408-1.825 0.974-2.552 1.7-0.731 0.731-1.304 1.578-1.726 2.557-0.422 0.974-0.632 2.014-0.632 3.12s0.21 2.104 0.632 3.075c0.422 0.979 0.995 1.825 1.726 2.557 0.726 0.726 1.578 1.3 2.552 1.722s2 0.632 3.075 0.632h4.762v-11.222h10.691v11.182h0.005v0.040h4.759v-11.222h1.75v0.005h0.741v-4.762h-2.488v-15.278c1.925 0 3.627 0.467 5.125 1.399 1.498 0.929 2.755 2.12 3.755 3.578 1.005 1.453 1.771 3.075 2.297 4.866 0.521 1.79 0.785 3.547 0.785 5.262h4.363c0-0.493 0.059-1.149 0.175-1.965 0.116-0.811 0.323-1.606 0.616-2.377 0.288-0.771 0.667-1.434 1.134-1.986 0.462-0.552 1.045-0.83 1.745-0.83v23.271h4.759v-24.099h-4.759zM7.988 31.17c-0.583 0-1.099-0.224-1.547-0.672-0.453-0.453-0.795-0.925-1.026-1.422-0.408-0.757-0.691-1.578-0.851-2.467-0.087-0.479-0.146-0.95-0.186-1.415-0.057-1.927 0.755-3.578 2.097-4.179 0.304-0.134 0.809-0.295 1.516-0.236v10.392z"></path>
</symbol>
</svg>
</defs>
</svg>
