<svg aria-hidden="true" style="position: absolute; width: 0; height: 0; overflow: hidden;" version="1.1" xmlns="http://www.w3.org/2000/svg" xmlns:xlink="http://www.w3.org/1999/xlink">
<defs>
<symbol id="icon-menuburger" viewBox="0 0 32 32">
<path stroke-linejoin="round" stroke-linecap="round" stroke-miterlimit="4" stroke-width="1.6" d="M4 8h24M4 16h24M4 24h24"></path>
</symbol>
<symbol id="icon-g10" viewBox="0 0 53 32">
<path fill="#181655" style="fill: var(--color1, #181655)" d="M48.195 7.857c-2.009 0-3.767 0.668-5.283 2.009-0.583-1.515-1.382-2.865-2.399-4.063-1.018-1.193-2.171-2.212-3.449-3.054-1.283-0.843-2.682-1.507-4.193-1.987s-3.067-0.735-4.669-0.763h-4.762v16.019h-10.691v-16.019h-4.762v16.019c-1.076 0-2.104 0.206-3.076 0.615-0.974 0.408-1.825 0.974-2.553 1.7s-1.305 1.579-1.726 2.556c-0.422 0.974-0.633 2.014-0.633 3.123s0.211 2.104 0.633 3.077c0.422 0.977 0.996 1.825 1.726 2.556 0.726 0.726 1.579 1.3 2.553 1.723s2 0.633 3.076 0.633h4.762v-11.221h10.691v11.18h0.005v0.041h4.758v-11.221h1.749v0.005h0.74v-4.762h-2.489v-15.281c1.923 0 3.628 0.466 5.126 1.399 1.498 0.929 2.753 2.122 3.753 3.579 1.005 1.454 1.772 3.076 2.296 4.865 0.521 1.789 0.784 3.547 0.784 5.261h4.363c0-0.493 0.058-1.148 0.174-1.964 0.116-0.811 0.323-1.605 0.615-2.376 0.286-0.772 0.668-1.434 1.134-1.987 0.462-0.552 1.045-0.83 1.745-0.83v23.27h4.758v-24.101h-4.757zM7.988 31.168c-0.583 0-1.099-0.225-1.547-0.673-0.453-0.453-0.794-0.924-1.026-1.422-0.408-0.758-0.691-1.579-0.852-2.466-0.086-0.474-0.147-0.942-0.187-1.403v0c-0.062-1.934 0.752-3.591 2.097-4.191 0.303-0.136 0.809-0.295 1.515-0.236v10.391z"></path>
</symbol>

<symbol id="icon-close" viewBox="0 0 32 32">
<path stroke-linejoin="round" stroke-linecap="round" stroke-miterlimit="4" stroke-width="1.6" d="M8 8l16 16M8 24l16-16"></path>
</symbol>
<symbol id="icon-menuburgerhorizontaltablet" viewBox="0 0 58 32">
<path stroke-linejoin="round" stroke-linecap="round" stroke-miterlimit="4" stroke-width="1.6" d="M7.2 8h43.2M7.2 16h43.2M7.2 24h43.2"></path>
</symbol>
</defs>
</svg>
